<?xml version="1.0" encoding="UTF-8" standalone="no"?>
<!DOCTYPE svg PUBLIC "-//W3C//DTD SVG 1.1//EN" "http://www.w3.org/Graphics/SVG/1.1/DTD/svg11.dtd">
<svg version="1.1" xmlns="http://www.w3.org/2000/svg" xmlns:xlink="http://www.w3.org/1999/xlink" preserveAspectRatio="xMidYMid meet" viewBox="0 0 640 640" width="640" height="640"><defs><path d="M600 50L600 600L50 600L50 50L600 50Z" id="b2A2Kg9G"></path><path d="M100 600L100 50L100 600Z" id="c4h13ynVaX"></path><path d="M150 600L150 50L150 600Z" id="a3GCpQB72R"></path><path d="M200 600L200 50L200 600Z" id="a1040i53KC"></path><path d="M250 600L250 50L250 600Z" id="eQSm2KFKZ"></path><path d="M300 600L300 50L300 600Z" id="a5c6b43zdc"></path><path d="M350 600L350 50L350 600Z" id="b8M2et6OA"></path><path d="M400 600L400 50L400 600Z" id="a4cGewBHWy"></path><path d="M450 600L450 50L450 600Z" id="aaFUCIgAa"></path><path d="M500 600L500 50L500 600Z" id="dWBpqd1VZ"></path><path d="M550 601.49L550 51.49L550 601.49Z" id="b118gmoItG"></path><path d="M599.07 550L49.07 550.69L599.07 550Z" id="bfGJwLgfH"></path><path d="M599.01 500L49.01 500.69L599.01 500Z" id="a2gcvRf8jV"></path><path d="M598.95 450L48.95 450.69L598.95 450Z" id="g4fJwnwP4L"></path><path d="M598.89 400L48.89 400.69L598.89 400Z" id="iArPjiwhk"></path><path d="M598.82 350L48.82 350.69L598.82 350Z" id="a1bAKdDqeV"></path><path d="M598.76 300L48.76 300.69L598.76 300Z" id="asqeaWu7W"></path><path d="M598.7 250L48.7 250.69L598.7 250Z" id="bRHzVFaJi"></path><path d="M598.64 200L48.64 200.69L598.64 200Z" id="ayiHaO3SB"></path><path d="M598.57 150L48.57 150.69L598.57 150Z" id="e11gjLSJd7"></path><path d="M600 100L50 100.69L600 100Z" id="fPGKC8Ugp"></path></defs><g><g><g><g><use xlink:href="#b2A2Kg9G" opacity="1" fill-opacity="0" stroke="#000000" stroke-width="1" stroke-opacity="1"></use></g></g><g><g><g><use xlink:href="#c4h13ynVaX" opacity="1" fill-opacity="0" stroke="#000000" stroke-width="1" stroke-opacity="1"></use></g></g><g><g><use xlink:href="#a3GCpQB72R" opacity="1" fill-opacity="0" stroke="#000000" stroke-width="1" stroke-opacity="1"></use></g></g><g><g><use xlink:href="#a1040i53KC" opacity="1" fill-opacity="0" stroke="#000000" stroke-width="1" stroke-opacity="1"></use></g></g><g><g><use xlink:href="#eQSm2KFKZ" opacity="1" fill-opacity="0" stroke="#000000" stroke-width="1" stroke-opacity="1"></use></g></g><g><g><use xlink:href="#a5c6b43zdc" opacity="1" fill-opacity="0" stroke="#000000" stroke-width="1" stroke-opacity="1"></use></g></g><g><g><use xlink:href="#b8M2et6OA" opacity="1" fill-opacity="0" stroke="#000000" stroke-width="1" stroke-opacity="1"></use></g></g><g><g><use xlink:href="#a4cGewBHWy" opacity="1" fill-opacity="0" stroke="#000000" stroke-width="1" stroke-opacity="1"></use></g></g><g><g><use xlink:href="#aaFUCIgAa" opacity="1" fill-opacity="0" stroke="#000000" stroke-width="1" stroke-opacity="1"></use></g></g><g><g><use xlink:href="#dWBpqd1VZ" opacity="1" fill-opacity="0" stroke="#000000" stroke-width="1" stroke-opacity="1"></use></g></g><g><g><use xlink:href="#b118gmoItG" opacity="1" fill-opacity="0" stroke="#000000" stroke-width="1" stroke-opacity="1"></use></g></g></g><g><g><g><use xlink:href="#bfGJwLgfH" opacity="1" fill-opacity="0" stroke="#000000" stroke-width="1" stroke-opacity="1"></use></g></g><g><g><use xlink:href="#a2gcvRf8jV" opacity="1" fill-opacity="0" stroke="#000000" stroke-width="1" stroke-opacity="1"></use></g></g><g><g><use xlink:href="#g4fJwnwP4L" opacity="1" fill-opacity="0" stroke="#000000" stroke-width="1" stroke-opacity="1"></use></g></g><g><g><use xlink:href="#iArPjiwhk" opacity="1" fill-opacity="0" stroke="#000000" stroke-width="1" stroke-opacity="1"></use></g></g><g><g><use xlink:href="#a1bAKdDqeV" opacity="1" fill-opacity="0" stroke="#000000" stroke-width="1" stroke-opacity="1"></use></g></g><g><g><use xlink:href="#asqeaWu7W" opacity="1" fill-opacity="0" stroke="#000000" stroke-width="1" stroke-opacity="1"></use></g></g><g><g><use xlink:href="#bRHzVFaJi" opacity="1" fill-opacity="0" stroke="#000000" stroke-width="1" stroke-opacity="1"></use></g></g><g><g><use xlink:href="#ayiHaO3SB" opacity="1" fill-opacity="0" stroke="#000000" stroke-width="1" stroke-opacity="1"></use></g></g><g><g><use xlink:href="#e11gjLSJd7" opacity="1" fill-opacity="0" stroke="#000000" stroke-width="1" stroke-opacity="1"></use></g></g><g><g><use xlink:href="#fPGKC8Ugp" opacity="1" fill-opacity="0" stroke="#000000" stroke-width="1" stroke-opacity="1"></use></g></g></g></g></g></svg>